<?xml version="1.0" encoding="UTF-8" standalone="no"?>
<!DOCTYPE svg PUBLIC "-//W3C//DTD SVG 1.1//EN" "http://www.w3.org/Graphics/SVG/1.1/DTD/svg11.dtd">
<svg class="iphone" version="1.1" xmlns="http://www.w3.org/2000/svg" xmlns:xlink="http://www.w3.org/1999/xlink" preserveAspectRatio="xMidYMid meet" viewBox="0 0 342 532" width="342" height="532"><defs><path d="M49.86 494.9C61.96 508.33 79.18 516 97.26 516C131.99 516 203.58 516 237.26 516C258.59 516 278.84 506.59 292.59 490.27C294.17 488.4 288.25 495.42 292.59 490.27C297.69 484.21 300.5 476.54 300.5 468.62C300.5 384.54 300.5 151.85 300.5 69.6C300.5 55.86 295.34 42.62 286.05 32.5C283.02 29.2 288.94 35.65 286.05 32.5C276.4 21.99 262.78 16 248.5 16C212.58 16 128.37 16 92.74 16C77.47 16 62.84 22.14 52.14 33.04C49.16 36.08 53.16 32.01 49.23 36.01C41.54 43.84 37.23 54.39 37.23 65.37C37.23 148.47 37.23 379.27 37.23 462.03C37.23 474.17 41.73 485.88 49.86 494.9C53.66 499.12 47.33 492.1 49.86 494.9Z" id="bofzFCTIl"></path><path d="M55.56 451.79C58.39 460.44 66.48 466.28 75.59 466.24C115.7 466.06 223.77 465.58 264.64 465.4C271.95 465.36 278.88 462.16 283.64 456.6C284.22 455.93 280.26 460.55 281.29 459.35C284.67 455.4 286.53 450.38 286.53 445.18C286.53 372.69 286.53 160.63 286.53 87.48C286.53 84.35 285.84 81.27 284.51 78.44C282.83 74.89 284.55 78.53 284.06 77.48C279.23 67.24 268.92 60.7 257.59 60.7C218.07 60.7 115.17 60.7 74.92 60.7C66.02 60.7 58.14 66.43 55.39 74.9C54.89 76.47 55.94 73.2 54.93 76.33C53.56 80.57 52.85 85 52.83 89.47C52.62 159.6 52 359 51.78 428.07C51.76 436.06 53.01 444 55.5 451.6C56.46 454.54 54.8 449.46 55.56 451.79Z" id="a33osWLkru"></path><path d="M188.54 491.65C188.54 501.9 179.86 510.22 169.16 510.22C158.46 510.22 149.77 501.9 149.77 491.65C149.77 481.4 158.46 473.07 169.16 473.07C179.86 473.07 188.54 481.4 188.54 491.65Z" id="bY2JIzhQj"></path><path d="M142.43 40.84C142.43 43.32 140.42 45.34 137.93 45.34C135.45 45.34 133.43 43.32 133.43 40.84C133.43 38.36 135.45 36.34 137.93 36.34C140.42 36.34 142.43 38.36 142.43 40.84Z" id="dbgedC1us"></path><path d="M192.78 38.39C194.02 38.38 195.03 39.38 195.05 40.62C195.05 41.07 195.04 40.17 195.05 40.62C195.06 41.87 194.06 42.88 192.82 42.89C184.27 42.98 160.87 43.2 152.32 43.29C151.08 43.3 150.06 42.3 150.05 41.06C150.04 40.61 150.05 41.51 150.05 41.06C150.04 39.81 151.03 38.8 152.28 38.79C160.83 38.7 184.23 38.48 192.78 38.39Z" id="a70owhiIXQ"></path></defs><g><g><g><g><use xlink:href="#bofzFCTIl" opacity="1" fill-opacity="0" stroke="#ffffff" stroke-width="2" stroke-opacity="1"></use></g></g><g><g><use xlink:href="#a33osWLkru" opacity="1" fill-opacity="0" stroke="#ffffff" stroke-width="2" stroke-opacity="1"></use></g></g><g><use xlink:href="#bY2JIzhQj" opacity="1" fill="#ffffff" fill-opacity="1"></use><g><use xlink:href="#bY2JIzhQj" opacity="1" fill-opacity="0" stroke="#ffffff" stroke-width="2" stroke-opacity="1"></use></g></g><g><use xlink:href="#dbgedC1us" opacity="1" fill="#ffffff" fill-opacity="1"></use><g><use xlink:href="#dbgedC1us" opacity="1" fill-opacity="0" stroke="#ffffff" stroke-width="2" stroke-opacity="1"></use></g></g><g><use xlink:href="#a70owhiIXQ" opacity="1" fill="#ffffff" fill-opacity="1"></use><g><use xlink:href="#a70owhiIXQ" opacity="1" fill-opacity="0" stroke="#ffffff" stroke-width="2" stroke-opacity="1"></use></g></g></g></g></svg>