<?xml version="1.0" encoding="UTF-8" standalone="no"?>
<!DOCTYPE svg PUBLIC "-//W3C//DTD SVG 1.1//EN" "http://www.w3.org/Graphics/SVG/1.1/DTD/svg11.dtd">
<svg version="1.1" xmlns="http://www.w3.org/2000/svg" xmlns:xlink="http://www.w3.org/1999/xlink" preserveAspectRatio="xMidYMid meet" viewBox="0 0 400 500" width="400" height="500"><defs><path d="M328.08 425.53C326.2 435.53 317.56 442.84 307.39 443.04C305.5 443.08 307.71 443.04 303.43 443.12C303.43 443.12 292.52 443.23 292.52 443.23C252.53 443.23 138.82 443.23 99.04 443.23C99.04 443.23 86.11 443.2 86.11 443.2C81.53 443.19 83.69 443.2 81.46 443.19C71.31 443.15 63.02 435.05 62.76 424.9C62.7 422.84 62.77 425.24 62.65 420.77C62.65 420.77 62.5 408.44 62.5 408.44C62.62 339.8 62.97 139.89 63.09 71.21C63.1 67.26 63.52 63.32 64.34 59.46C65.12 55.78 64.67 57.9 65.06 56.06C67 46.92 74.09 39.75 83.21 37.72C85.09 37.3 81.6 38.08 84.94 37.33C90.01 36.21 95.19 35.64 100.39 35.64C139.91 35.64 253.22 35.64 293.39 35.64C293.39 35.64 302.55 35.99 302.55 35.99C307.2 36.36 306.09 36.27 308.12 36.43C318.55 37.24 327.11 45 328.95 55.29C329.18 56.61 328.89 54.96 329.65 59.25C329.97 61.02 330.13 62.82 330.13 64.62C330.13 134.62 330.13 336.81 330.13 405.54C330.13 411.57 329.57 417.59 328.46 423.51C327.74 427.35 328.49 423.35 328.08 425.53Z" id="ealTNBlMA"></path><path d="M304.61 75.4C308.66 75.4 311.95 78.69 311.95 82.74C311.95 146.85 311.95 331.83 311.95 395.93C311.95 399.98 308.66 403.27 304.61 403.27C260.28 403.27 134.61 403.27 90.27 403.27C86.22 403.27 82.94 399.98 82.94 395.93C82.94 331.83 82.94 146.85 82.94 82.74C82.94 78.69 86.22 75.4 90.27 75.4C134.61 75.4 260.28 75.4 304.61 75.4Z" id="j5dthsXwtQ"></path><path d="" id="b4UQ7jn2o1"></path><path d="M199.25 54.69C199.25 56.34 197.99 57.69 196.44 57.69C194.88 57.69 193.63 56.34 193.63 54.69C193.63 53.03 194.88 51.69 196.44 51.69C197.99 51.69 199.25 53.03 199.25 54.69Z" id="b9VZXw4S"></path><path d="M207.37 424.81C207.37 430.75 202.22 435.56 195.87 435.56C189.53 435.56 184.37 430.75 184.37 424.81C184.37 418.88 189.53 414.06 195.87 414.06C202.22 414.06 207.37 418.88 207.37 424.81Z" id="b2l0pkQlu"></path><path d="M181.5 110.5C185.5 110.5 188.75 113.75 188.75 117.75C188.75 122.1 188.75 127.9 188.75 132.25C188.75 136.25 185.5 139.5 181.5 139.5C176.65 139.5 169.35 139.5 164.5 139.5C160.49 139.5 157.25 136.25 157.25 132.25C157.25 127.9 157.25 122.1 157.25 117.75C157.25 113.75 160.49 110.5 164.5 110.5C169.35 110.5 176.65 110.5 181.5 110.5Z" id="c1UIHzGirU"></path><path d="M234.75 110.5C238.75 110.5 242 113.75 242 117.75C242 122.1 242 127.9 242 132.25C242 136.25 238.75 139.5 234.75 139.5C229.9 139.5 222.6 139.5 217.75 139.5C213.74 139.5 210.5 136.25 210.5 132.25C210.5 127.9 210.5 122.1 210.5 117.75C210.5 113.75 213.74 110.5 217.75 110.5C222.6 110.5 229.9 110.5 234.75 110.5Z" id="b1F9MyIXQP"></path><path d="M126.62 110.5C130.63 110.5 133.87 113.75 133.87 117.75C133.87 122.1 133.87 127.9 133.87 132.25C133.87 136.25 130.63 139.5 126.62 139.5C121.77 139.5 114.47 139.5 109.62 139.5C105.62 139.5 102.37 136.25 102.37 132.25C102.37 127.9 102.37 122.1 102.37 117.75C102.37 113.75 105.62 110.5 109.62 110.5C114.47 110.5 121.77 110.5 126.62 110.5Z" id="eb5Gwzu81"></path><path d="M286.12 110.5C290.13 110.5 293.37 113.75 293.37 117.75C293.37 122.1 293.37 127.9 293.37 132.25C293.37 136.25 290.13 139.5 286.12 139.5C281.27 139.5 273.97 139.5 269.12 139.5C265.12 139.5 261.87 136.25 261.87 132.25C261.87 127.9 261.87 122.1 261.87 117.75C261.87 113.75 265.12 110.5 269.12 110.5C273.97 110.5 281.27 110.5 286.12 110.5Z" id="b5sJqAtia"></path><path d="M181.37 165.19C185.38 165.19 188.62 168.43 188.62 172.44C188.62 176.79 188.62 182.59 188.62 186.94C188.62 190.94 185.38 194.19 181.37 194.19C176.52 194.19 169.22 194.19 164.37 194.19C160.37 194.19 157.12 190.94 157.12 186.94C157.12 182.59 157.12 176.79 157.12 172.44C157.12 168.43 160.37 165.19 164.37 165.19C169.22 165.19 176.52 165.19 181.37 165.19Z" id="b3kzD3BJfW"></path><path d="M234.62 165.19C238.63 165.19 241.87 168.43 241.87 172.44C241.87 176.79 241.87 182.59 241.87 186.94C241.87 190.94 238.63 194.19 234.62 194.19C229.77 194.19 222.47 194.19 217.62 194.19C213.62 194.19 210.37 190.94 210.37 186.94C210.37 182.59 210.37 176.79 210.37 172.44C210.37 168.43 213.62 165.19 217.62 165.19C222.47 165.19 229.77 165.19 234.62 165.19Z" id="b13ueuvH9v"></path><path d="M126.5 165.19C130.5 165.19 133.75 168.43 133.75 172.44C133.75 176.79 133.75 182.59 133.75 186.94C133.75 190.94 130.5 194.19 126.5 194.19C121.65 194.19 114.35 194.19 109.5 194.19C105.49 194.19 102.25 190.94 102.25 186.94C102.25 182.59 102.25 176.79 102.25 172.44C102.25 168.43 105.49 165.19 109.5 165.19C114.35 165.19 121.65 165.19 126.5 165.19Z" id="c1KHYq1NzL"></path><path d="M286 165.19C290 165.19 293.25 168.43 293.25 172.44C293.25 176.79 293.25 182.59 293.25 186.94C293.25 190.94 290 194.19 286 194.19C281.15 194.19 273.85 194.19 269 194.19C264.99 194.19 261.75 190.94 261.75 186.94C261.75 182.59 261.75 176.79 261.75 172.44C261.75 168.43 264.99 165.19 269 165.19C273.85 165.19 281.15 165.19 286 165.19Z" id="euLPieAQw"></path><path d="M181.25 218.75C185.25 218.75 188.5 222 188.5 226C188.5 230.35 188.5 236.15 188.5 240.5C188.5 244.5 185.25 247.75 181.25 247.75C176.4 247.75 169.1 247.75 164.25 247.75C160.24 247.75 157 244.5 157 240.5C157 236.15 157 230.35 157 226C157 222 160.24 218.75 164.25 218.75C169.1 218.75 176.4 218.75 181.25 218.75Z" id="h1pwZLOUi"></path><path d="M234.5 218.75C238.5 218.75 241.75 222 241.75 226C241.75 230.35 241.75 236.15 241.75 240.5C241.75 244.5 238.5 247.75 234.5 247.75C229.65 247.75 222.35 247.75 217.5 247.75C213.49 247.75 210.25 244.5 210.25 240.5C210.25 236.15 210.25 230.35 210.25 226C210.25 222 213.49 218.75 217.5 218.75C222.35 218.75 229.65 218.75 234.5 218.75Z" id="e2k7LWvBOv"></path><path d="M126.37 218.75C130.38 218.75 133.62 222 133.62 226C133.62 230.35 133.62 236.15 133.62 240.5C133.62 244.5 130.38 247.75 126.37 247.75C121.52 247.75 114.22 247.75 109.37 247.75C105.37 247.75 102.12 244.5 102.12 240.5C102.12 236.15 102.12 230.35 102.12 226C102.12 222 105.37 218.75 109.37 218.75C114.22 218.75 121.52 218.75 126.37 218.75Z" id="eoitRHgyo"></path><path d="M285.87 218.75C289.88 218.75 293.12 222 293.12 226C293.12 230.35 293.12 236.15 293.12 240.5C293.12 244.5 289.88 247.75 285.87 247.75C281.02 247.75 273.72 247.75 268.87 247.75C264.87 247.75 261.62 244.5 261.62 240.5C261.62 236.15 261.62 230.35 261.62 226C261.62 222 264.87 218.75 268.87 218.75C273.72 218.75 281.02 218.75 285.87 218.75Z" id="beOjJIrIh"></path><path d="M125.25 269.25C129.25 269.25 132.5 272.5 132.5 276.5C132.5 280.85 132.5 286.65 132.5 291C132.5 295 129.25 298.25 125.25 298.25C120.4 298.25 113.1 298.25 108.25 298.25C104.24 298.25 101 295 101 291C101 286.65 101 280.85 101 276.5C101 272.5 104.24 269.25 108.25 269.25C113.1 269.25 120.4 269.25 125.25 269.25Z" id="a1mQQAodvb"></path><path d="M311.63 354.31L82.63 355.31" id="a1GIlKT05"></path><path d="M181.62 364.56C185.63 364.56 188.87 367.81 188.87 371.81C188.87 376.16 188.87 381.96 188.87 386.31C188.87 390.32 185.63 393.56 181.62 393.56C176.77 393.56 169.47 393.56 164.62 393.56C160.62 393.56 157.37 390.32 157.37 386.31C157.37 381.96 157.37 376.16 157.37 371.81C157.37 367.81 160.62 364.56 164.62 364.56C169.47 364.56 176.77 364.56 181.62 364.56Z" id="mpnrc7ouD"></path><path d="M234.87 364.56C238.88 364.56 242.12 367.81 242.12 371.81C242.12 376.16 242.12 381.96 242.12 386.31C242.12 390.32 238.88 393.56 234.87 393.56C230.02 393.56 222.72 393.56 217.87 393.56C213.87 393.56 210.62 390.32 210.62 386.31C210.62 381.96 210.62 376.16 210.62 371.81C210.62 367.81 213.87 364.56 217.87 364.56C222.72 364.56 230.02 364.56 234.87 364.56Z" id="d2gDVX2nuj"></path><path d="M126.75 364.56C130.75 364.56 134 367.81 134 371.81C134 376.16 134 381.96 134 386.31C134 390.32 130.75 393.56 126.75 393.56C121.9 393.56 114.6 393.56 109.75 393.56C105.74 393.56 102.5 390.32 102.5 386.31C102.5 381.96 102.5 376.16 102.5 371.81C102.5 367.81 105.74 364.56 109.75 364.56C114.6 364.56 121.9 364.56 126.75 364.56Z" id="aDjxhC1LT"></path><path d="M286.25 364.56C290.25 364.56 293.5 367.81 293.5 371.81C293.5 376.16 293.5 381.96 293.5 386.31C293.5 390.32 290.25 393.56 286.25 393.56C281.4 393.56 274.1 393.56 269.25 393.56C265.24 393.56 262 390.32 262 386.31C262 381.96 262 376.16 262 371.81C262 367.81 265.24 364.56 269.25 364.56C274.1 364.56 281.4 364.56 286.25 364.56Z" id="dYWIpNpgM"></path></defs><g><g><g><use xlink:href="#ealTNBlMA" opacity="1" stroke="#000000" fill-opacity="0"></use><g><use xlink:href="#ealTNBlMA" opacity="1" fill-opacity="0" stroke="#ffffff" stroke-width="2" stroke-opacity="1"></use></g></g><g><use xlink:href="#j5dthsXwtQ" opacity="1" stroke="#000000" fill-opacity="0"></use><g><use xlink:href="#j5dthsXwtQ" opacity="1" fill-opacity="0" stroke="#ffffff" stroke-width="2" stroke-opacity="1"></use></g></g><g><g><use xlink:href="#b4UQ7jn2o1" opacity="1" fill-opacity="0" stroke="#f6aaad" stroke-width="2" stroke-opacity="1"></use></g></g><g><use xlink:href="#b9VZXw4S" opacity="1" stroke="#000000" fill-opacity="0"></use><g><use xlink:href="#b9VZXw4S" opacity="1" fill-opacity="0" stroke="#ffffff" stroke-width="2" stroke-opacity="1"></use></g></g><g><use xlink:href="#b2l0pkQlu" opacity="1" stroke="#000000" fill-opacity="0"></use><g><use xlink:href="#b2l0pkQlu" opacity="1" fill-opacity="0" stroke="#ffffff" stroke-width="2" stroke-opacity="1"></use></g></g><g><use xlink:href="#c1UIHzGirU" opacity="1" stroke="#000000" fill-opacity="0"></use><g><use xlink:href="#c1UIHzGirU" opacity="1" fill-opacity="0" stroke="#ffffff" stroke-width="2" stroke-opacity="1"></use></g></g><g><use xlink:href="#b1F9MyIXQP" opacity="1" stroke="#000000" fill-opacity="0"></use><g><use xlink:href="#b1F9MyIXQP" opacity="1" fill-opacity="0" stroke="#ffffff" stroke-width="2" stroke-opacity="1"></use></g></g><g><use xlink:href="#eb5Gwzu81" opacity="1" stroke="#000000" fill-opacity="0"></use><g><use xlink:href="#eb5Gwzu81" opacity="1" fill-opacity="0" stroke="#ffffff" stroke-width="2" stroke-opacity="1"></use></g></g><g><use xlink:href="#b5sJqAtia" opacity="1" stroke="#000000" fill-opacity="0"></use><g><use xlink:href="#b5sJqAtia" opacity="1" fill-opacity="0" stroke="#ffffff" stroke-width="2" stroke-opacity="1"></use></g></g><g><use xlink:href="#b3kzD3BJfW" opacity="1" stroke="#000000" fill-opacity="0"></use><g><use xlink:href="#b3kzD3BJfW" opacity="1" fill-opacity="0" stroke="#ffffff" stroke-width="2" stroke-opacity="1"></use></g></g><g><use xlink:href="#b13ueuvH9v" opacity="1" stroke="#000000" fill-opacity="0"></use><g><use xlink:href="#b13ueuvH9v" opacity="1" fill-opacity="0" stroke="#ffffff" stroke-width="2" stroke-opacity="1"></use></g></g><g><use xlink:href="#c1KHYq1NzL" opacity="1" stroke="#000000" fill-opacity="0"></use><g><use xlink:href="#c1KHYq1NzL" opacity="1" fill-opacity="0" stroke="#ffffff" stroke-width="2" stroke-opacity="1"></use></g></g><g><use xlink:href="#euLPieAQw" opacity="1" stroke="#000000" fill-opacity="0"></use><g><use xlink:href="#euLPieAQw" opacity="1" fill-opacity="0" stroke="#ffffff" stroke-width="2" stroke-opacity="1"></use></g></g><g><use xlink:href="#h1pwZLOUi" opacity="1" stroke="#000000" fill-opacity="0"></use><g><use xlink:href="#h1pwZLOUi" opacity="1" fill-opacity="0" stroke="#ffffff" stroke-width="2" stroke-opacity="1"></use></g></g><g><use xlink:href="#e2k7LWvBOv" opacity="1" stroke="#000000" fill-opacity="0"></use><g><use xlink:href="#e2k7LWvBOv" opacity="1" fill-opacity="0" stroke="#ffffff" stroke-width="2" stroke-opacity="1"></use></g></g><g><use xlink:href="#eoitRHgyo" opacity="1" stroke="#000000" fill-opacity="0"></use><g><use xlink:href="#eoitRHgyo" opacity="1" fill-opacity="0" stroke="#ffffff" stroke-width="2" stroke-opacity="1"></use></g></g><g><use xlink:href="#beOjJIrIh" opacity="1" stroke="#000000" fill-opacity="0"></use><g><use xlink:href="#beOjJIrIh" opacity="1" fill-opacity="0" stroke="#ffffff" stroke-width="2" stroke-opacity="1"></use></g></g><g><use xlink:href="#a1mQQAodvb" opacity="1" stroke="#000000" fill-opacity="0"></use><g><use xlink:href="#a1mQQAodvb" opacity="1" fill-opacity="0" stroke="#ffffff" stroke-width="2" stroke-opacity="1"></use></g></g><g><use xlink:href="#a1GIlKT05" opacity="1" stroke="#000000" fill-opacity="0"></use><g><use xlink:href="#a1GIlKT05" opacity="1" fill-opacity="0" stroke="#ffffff" stroke-width="2" stroke-opacity="1"></use></g></g><g><use xlink:href="#mpnrc7ouD" opacity="1" stroke="#000000" fill-opacity="0"></use><g><use xlink:href="#mpnrc7ouD" opacity="1" fill-opacity="0" stroke="#ffffff" stroke-width="2" stroke-opacity="1"></use></g></g><g><use xlink:href="#d2gDVX2nuj" opacity="1" stroke="#000000" fill-opacity="0"></use><g><use xlink:href="#d2gDVX2nuj" opacity="1" fill-opacity="0" stroke="#ffffff" stroke-width="2" stroke-opacity="1"></use></g></g><g><use xlink:href="#aDjxhC1LT" opacity="1" stroke="#000000" fill-opacity="0"></use><g><use xlink:href="#aDjxhC1LT" opacity="1" fill-opacity="0" stroke="#ffffff" stroke-width="2" stroke-opacity="1"></use></g></g><g><use xlink:href="#dYWIpNpgM" opacity="1" stroke="#000000" fill-opacity="0"></use><g><use xlink:href="#dYWIpNpgM" opacity="1" fill-opacity="0" stroke="#ffffff" stroke-width="2" stroke-opacity="1"></use></g></g></g></g></svg>