<?xml version="1.0" encoding="UTF-8" standalone="no"?>
<!DOCTYPE svg PUBLIC "-//W3C//DTD SVG 1.1//EN" "http://www.w3.org/Graphics/SVG/1.1/DTD/svg11.dtd">
<svg version="1.1" xmlns="http://www.w3.org/2000/svg" xmlns:xlink="http://www.w3.org/1999/xlink" preserveAspectRatio="xMidYMid meet" viewBox="0 0 800 800" width="800" height="800"><defs><path d="M693.65 705.7C690.35 721.88 676.27 733.6 659.76 733.9C656 733.97 657.41 733.94 649.75 734.08C649.75 734.08 632.11 734.24 632.11 734.24C561.92 734.24 361.49 734.24 291.63 734.24C291.63 734.24 270.72 734.21 270.72 734.21C262.54 734.18 263.66 734.18 259.28 734.17C242.84 734.12 229.42 721.03 228.96 704.6C228.86 701.27 228.97 705.15 228.77 697.91C228.77 697.91 228.51 677.97 228.51 677.97C228.72 566.96 229.34 243.62 229.55 132.54C229.56 126.15 230.29 119.79 231.72 113.56C233.09 107.6 232.32 110.94 233.01 107.94C236.39 93.21 248.06 81.81 262.87 78.76C266.53 78.01 262.75 78.79 268.8 77.55C277.03 75.85 285.42 75 293.82 75C363.24 75 563.05 75 633.51 75C633.51 75 648.33 75.53 648.33 75.53C656.61 76.13 657.04 76.16 661.07 76.45C677.97 77.67 691.95 90.08 695.17 106.71C695.59 108.87 695.08 106.27 696.43 113.2C696.98 116.06 697.26 118.97 697.26 121.88C697.26 235.09 697.26 562.13 697.26 673.28C697.26 683.03 696.28 692.76 694.34 702.31C693.07 708.53 694.37 702.15 693.65 705.7Z" id="a4HvC6EJlm"></path><path d="M653.54 139.32C660.1 139.32 665.41 144.63 665.41 151.19C665.41 254.87 665.41 554.06 665.41 657.74C665.41 664.3 660.1 669.61 653.54 669.61C575.7 669.61 354.02 669.61 276.17 669.61C269.61 669.61 264.3 664.3 264.3 657.74C264.3 554.06 264.3 254.87 264.3 151.19C264.3 144.63 269.61 139.32 276.17 139.32C354.02 139.32 575.7 139.32 653.54 139.32Z" id="bgrm71c8e"></path><path d="M480.28 704.46C480.28 714.05 471.26 721.84 460.14 721.84C449.03 721.84 440 714.05 440 704.46C440 694.86 449.03 687.07 460.14 687.07C471.26 687.07 480.28 694.86 480.28 704.46Z" id="aVXBhwcPV"></path><path d="M437.9 196.09C444.38 196.09 449.63 201.34 449.63 207.81C449.63 214.85 449.63 224.23 449.63 231.26C449.63 237.74 444.38 242.99 437.9 242.99C429.21 242.99 414.87 242.99 406.18 242.99C399.71 242.99 394.46 237.74 394.46 231.26C394.46 224.23 394.46 214.85 394.46 207.81C394.46 201.34 399.71 196.09 406.18 196.09C414.87 196.09 429.21 196.09 437.9 196.09Z" id="mbKYldTpF"></path><path d="M531.17 196.09C537.64 196.09 542.89 201.34 542.89 207.81C542.89 214.85 542.89 224.23 542.89 231.26C542.89 237.74 537.64 242.99 531.17 242.99C522.48 242.99 508.14 242.99 499.45 242.99C492.97 242.99 487.72 237.74 487.72 231.26C487.72 224.23 487.72 214.85 487.72 207.81C487.72 201.34 492.97 196.09 499.45 196.09C508.14 196.09 522.48 196.09 531.17 196.09Z" id="c1pzz9WHP0"></path><path d="M341.79 196.09C348.27 196.09 353.52 201.34 353.52 207.81C353.52 214.85 353.52 224.23 353.52 231.26C353.52 237.74 348.27 242.99 341.79 242.99C333.1 242.99 318.76 242.99 310.07 242.99C303.59 242.99 298.34 237.74 298.34 231.26C298.34 224.23 298.34 214.85 298.34 207.81C298.34 201.34 303.59 196.09 310.07 196.09C318.76 196.09 333.1 196.09 341.79 196.09Z" id="d36nQPwTIu"></path><path d="M621.15 196.09C627.63 196.09 632.88 201.34 632.88 207.81C632.88 214.85 632.88 224.23 632.88 231.26C632.88 237.74 627.63 242.99 621.15 242.99C612.46 242.99 598.12 242.99 589.43 242.99C582.95 242.99 577.7 237.74 577.7 231.26C577.7 224.23 577.7 214.85 577.7 207.81C577.7 201.34 582.95 196.09 589.43 196.09C598.12 196.09 612.46 196.09 621.15 196.09Z" id="c5KykSi63"></path><path d="M437.68 284.54C444.16 284.54 449.41 289.79 449.41 296.26C449.41 303.3 449.41 312.68 449.41 319.72C449.41 326.19 444.16 331.44 437.68 331.44C428.99 331.44 414.65 331.44 405.96 331.44C399.49 331.44 394.24 326.19 394.24 319.72C394.24 312.68 394.24 303.3 394.24 296.26C394.24 289.79 399.49 284.54 405.96 284.54C414.65 284.54 428.99 284.54 437.68 284.54Z" id="a5TKa6IbTB"></path><path d="M530.95 284.54C537.42 284.54 542.67 289.79 542.67 296.26C542.67 303.3 542.67 312.68 542.67 319.72C542.67 326.19 537.42 331.44 530.95 331.44C522.26 331.44 507.92 331.44 499.23 331.44C492.75 331.44 487.5 326.19 487.5 319.72C487.5 312.68 487.5 303.3 487.5 296.26C487.5 289.79 492.75 284.54 499.23 284.54C507.92 284.54 522.26 284.54 530.95 284.54Z" id="a4WW2bHvv"></path><path d="M341.57 284.54C348.05 284.54 353.3 289.79 353.3 296.26C353.3 303.3 353.3 312.68 353.3 319.72C353.3 326.19 348.05 331.44 341.57 331.44C332.88 331.44 318.54 331.44 309.85 331.44C303.38 331.44 298.13 326.19 298.13 319.72C298.13 312.68 298.13 303.3 298.13 296.26C298.13 289.79 303.38 284.54 309.85 284.54C318.54 284.54 332.88 284.54 341.57 284.54Z" id="a5l99tWL6"></path><path d="M620.93 284.54C627.41 284.54 632.66 289.79 632.66 296.26C632.66 303.3 632.66 312.68 632.66 319.72C632.66 326.19 627.41 331.44 620.93 331.44C612.24 331.44 597.9 331.44 589.21 331.44C582.74 331.44 577.49 326.19 577.49 319.72C577.49 312.68 577.49 303.3 577.49 296.26C577.49 289.79 582.74 284.54 589.21 284.54C597.9 284.54 612.24 284.54 620.93 284.54Z" id="dYQV5gSeB"></path><path d="M437.46 371.17C443.94 371.17 449.19 376.42 449.19 382.9C449.19 389.93 449.19 399.31 449.19 406.35C449.19 412.83 443.94 418.08 437.46 418.08C428.77 418.08 414.43 418.08 405.74 418.08C399.27 418.08 394.02 412.83 394.02 406.35C394.02 399.31 394.02 389.93 394.02 382.9C394.02 376.42 399.27 371.17 405.74 371.17C414.43 371.17 428.77 371.17 437.46 371.17Z" id="a3kBolmiMi"></path><path d="M530.73 371.17C537.21 371.17 542.46 376.42 542.46 382.9C542.46 389.93 542.46 399.31 542.46 406.35C542.46 412.83 537.21 418.08 530.73 418.08C522.04 418.08 507.7 418.08 499.01 418.08C492.53 418.08 487.28 412.83 487.28 406.35C487.28 399.31 487.28 389.93 487.28 382.9C487.28 376.42 492.53 371.17 499.01 371.17C507.7 371.17 522.04 371.17 530.73 371.17Z" id="dE6Go3GD4"></path><path d="M341.35 371.17C347.83 371.17 353.08 376.42 353.08 382.9C353.08 389.93 353.08 399.31 353.08 406.35C353.08 412.83 347.83 418.08 341.35 418.08C332.66 418.08 318.32 418.08 309.63 418.08C303.16 418.08 297.91 412.83 297.91 406.35C297.91 399.31 297.91 389.93 297.91 382.9C297.91 376.42 303.16 371.17 309.63 371.17C318.32 371.17 332.66 371.17 341.35 371.17Z" id="aCOfNVZ8a"></path><path d="M666.01 590.63L375.11 590.82" id="c53A7fXY1v"></path><path d="M438.12 607.01C444.6 607.01 449.85 612.26 449.85 618.73C449.85 625.77 449.85 635.15 449.85 642.19C449.85 648.66 444.6 653.91 438.12 653.91C429.43 653.91 415.09 653.91 406.4 653.91C399.93 653.91 394.68 648.66 394.68 642.19C394.68 635.15 394.68 625.77 394.68 618.73C394.68 612.26 399.93 607.01 406.4 607.01C415.09 607.01 429.43 607.01 438.12 607.01Z" id="b2ek3yfVCu"></path><path d="M531.39 607.01C537.86 607.01 543.11 612.26 543.11 618.73C543.11 625.77 543.11 635.15 543.11 642.19C543.11 648.66 537.86 653.91 531.39 653.91C522.7 653.91 508.36 653.91 499.67 653.91C493.19 653.91 487.94 648.66 487.94 642.19C487.94 635.15 487.94 625.77 487.94 618.73C487.94 612.26 493.19 607.01 499.67 607.01C508.36 607.01 522.7 607.01 531.39 607.01Z" id="af5yccn73"></path><path d="M621.37 607.01C627.85 607.01 633.09 612.26 633.09 618.73C633.09 625.77 633.09 635.15 633.09 642.19C633.09 648.66 627.85 653.91 621.37 653.91C612.68 653.91 598.34 653.91 589.65 653.91C583.17 653.91 577.92 648.66 577.92 642.19C577.92 635.15 577.92 625.77 577.92 618.73C577.92 612.26 583.17 607.01 589.65 607.01C598.34 607.01 612.68 607.01 621.37 607.01Z" id="a2ugSTdwyt"></path><path d="M125.13 713.24C137.23 726.67 154.45 734.34 172.53 734.34C207.26 734.34 278.85 734.34 312.53 734.34C333.86 734.34 354.11 724.93 367.86 708.61C369.44 706.74 363.52 713.76 367.86 708.61C372.96 702.55 375.77 694.88 375.77 686.96C375.77 602.88 375.77 370.19 375.77 287.94C375.77 274.2 370.61 260.96 361.32 250.84C358.29 247.54 364.21 253.99 361.32 250.84C351.67 240.33 338.05 234.34 323.77 234.34C287.85 234.34 203.64 234.34 168.01 234.34C152.74 234.34 138.11 240.48 127.41 251.38C124.43 254.42 128.43 250.35 124.5 254.35C116.81 262.19 112.5 272.73 112.5 283.71C112.5 366.81 112.5 597.61 112.5 680.37C112.5 692.51 117 704.22 125.13 713.24C128.93 717.46 122.6 710.44 125.13 713.24Z" id="c1kHNNrtUC"></path><path d="M217.41 259.18C217.41 261.66 215.39 263.68 212.91 263.68C210.42 263.68 208.41 261.66 208.41 259.18C208.41 256.7 210.42 254.68 212.91 254.68C215.39 254.68 217.41 256.7 217.41 259.18Z" id="b1FbDGS8on"></path><path d="M263.52 709.99C263.52 720.24 254.83 728.56 244.13 728.56C233.43 728.56 224.74 720.24 224.74 709.99C224.74 699.74 233.43 691.41 244.13 691.41C254.83 691.41 263.52 699.74 263.52 709.99Z" id="a2UOktrT40"></path><path d="M353.59 279.04C358.57 279.04 362.62 283.08 362.62 288.07C362.62 366.99 362.62 594.72 362.62 673.64C362.62 678.63 358.57 682.67 353.59 682.67C308 682.67 180.27 682.67 134.68 682.67C129.69 682.67 125.65 678.63 125.65 673.64C125.65 594.72 125.65 366.99 125.65 288.07C125.65 283.08 129.69 279.04 134.68 279.04C180.27 279.04 308 279.04 353.59 279.04Z" id="ajqN5cn0s"></path><path d="M267.75 256.74C268.99 256.72 270.01 257.72 270.02 258.96C270.03 259.41 270.02 258.51 270.02 258.96C270.03 260.21 269.04 261.22 267.79 261.23C259.24 261.32 235.85 261.54 227.3 261.63C226.05 261.64 225.04 260.64 225.02 259.4C225.02 258.95 225.03 259.85 225.02 259.4C225.01 258.16 226.01 257.14 227.25 257.13C235.8 257.04 259.2 256.82 267.75 256.74Z" id="b1HRVM4HrH"></path></defs><g><g><g><use xlink:href="#a4HvC6EJlm" opacity="1" fill="#ffffff" fill-opacity="0"></use><g><use xlink:href="#a4HvC6EJlm" opacity="1" fill-opacity="0" stroke="#ffffff" stroke-width="3" stroke-opacity="1"></use></g></g><g><use xlink:href="#bgrm71c8e" opacity="1" fill="#ffffff" fill-opacity="0"></use><g><use xlink:href="#bgrm71c8e" opacity="1" fill-opacity="0" stroke="#ffffff" stroke-width="3" stroke-opacity="1"></use></g></g><g><use xlink:href="#aVXBhwcPV" opacity="1" fill="#000000" fill-opacity="0"></use><g><use xlink:href="#aVXBhwcPV" opacity="1" fill-opacity="0" stroke="#ffffff" stroke-width="3" stroke-opacity="1"></use></g></g><g><use xlink:href="#mbKYldTpF" opacity="1" fill="#ffffff" fill-opacity="0"></use><g><use xlink:href="#mbKYldTpF" opacity="1" fill-opacity="0" stroke="#ffffff" stroke-width="3" stroke-opacity="1"></use></g></g><g><use xlink:href="#c1pzz9WHP0" opacity="1" fill="#ffffff" fill-opacity="0"></use><g><use xlink:href="#c1pzz9WHP0" opacity="1" fill-opacity="0" stroke="#ffffff" stroke-width="3" stroke-opacity="1"></use></g></g><g><use xlink:href="#d36nQPwTIu" opacity="1" fill="#ffffff" fill-opacity="0"></use><g><use xlink:href="#d36nQPwTIu" opacity="1" fill-opacity="0" stroke="#ffffff" stroke-width="3" stroke-opacity="1"></use></g></g><g><use xlink:href="#c5KykSi63" opacity="1" fill="#ffffff" fill-opacity="0"></use><g><use xlink:href="#c5KykSi63" opacity="1" fill-opacity="0" stroke="#ffffff" stroke-width="3" stroke-opacity="1"></use></g></g><g><use xlink:href="#a5TKa6IbTB" opacity="1" fill="#ffffff" fill-opacity="0"></use><g><use xlink:href="#a5TKa6IbTB" opacity="1" fill-opacity="0" stroke="#ffffff" stroke-width="3" stroke-opacity="1"></use></g></g><g><use xlink:href="#a4WW2bHvv" opacity="1" fill="#ffffff" fill-opacity="0"></use><g><use xlink:href="#a4WW2bHvv" opacity="1" fill-opacity="0" stroke="#ffffff" stroke-width="3" stroke-opacity="1"></use></g></g><g><use xlink:href="#a5l99tWL6" opacity="1" fill="#ffffff" fill-opacity="0"></use><g><use xlink:href="#a5l99tWL6" opacity="1" fill-opacity="0" stroke="#ffffff" stroke-width="3" stroke-opacity="1"></use></g></g><g><use xlink:href="#dYQV5gSeB" opacity="1" fill="#ffffff" fill-opacity="0"></use><g><use xlink:href="#dYQV5gSeB" opacity="1" fill-opacity="0" stroke="#ffffff" stroke-width="3" stroke-opacity="1"></use></g></g><g><use xlink:href="#a3kBolmiMi" opacity="1" fill="#ffffff" fill-opacity="0"></use><g><use xlink:href="#a3kBolmiMi" opacity="1" fill-opacity="0" stroke="#ffffff" stroke-width="3" stroke-opacity="1"></use></g></g><g><use xlink:href="#dE6Go3GD4" opacity="1" fill="#ffffff" fill-opacity="0"></use><g><use xlink:href="#dE6Go3GD4" opacity="1" fill-opacity="0" stroke="#ffffff" stroke-width="3" stroke-opacity="1"></use></g></g><g><use xlink:href="#aCOfNVZ8a" opacity="1" fill="#ffffff" fill-opacity="0"></use><g><use xlink:href="#aCOfNVZ8a" opacity="1" fill-opacity="0" stroke="#ffffff" stroke-width="3" stroke-opacity="1"></use></g></g><g><use xlink:href="#c53A7fXY1v" opacity="1" fill="#ffffff" fill-opacity="0"></use><g><use xlink:href="#c53A7fXY1v" opacity="1" fill-opacity="0" stroke="#ffffff" stroke-width="3" stroke-opacity="1"></use></g></g><g><use xlink:href="#b2ek3yfVCu" opacity="1" fill="#ffffff" fill-opacity="0"></use><g><use xlink:href="#b2ek3yfVCu" opacity="1" fill-opacity="0" stroke="#ffffff" stroke-width="3" stroke-opacity="1"></use></g></g><g><use xlink:href="#af5yccn73" opacity="1" fill="#ffffff" fill-opacity="0"></use><g><use xlink:href="#af5yccn73" opacity="1" fill-opacity="0" stroke="#ffffff" stroke-width="3" stroke-opacity="1"></use></g></g><g><use xlink:href="#a2ugSTdwyt" opacity="1" fill="#ffffff" fill-opacity="0"></use><g><use xlink:href="#a2ugSTdwyt" opacity="1" fill-opacity="0" stroke="#ffffff" stroke-width="3" stroke-opacity="1"></use></g></g><g><use xlink:href="#c1kHNNrtUC" opacity="1" fill="#ffffff" fill-opacity="0"></use><g><use xlink:href="#c1kHNNrtUC" opacity="1" fill-opacity="0" stroke="#ffffff" stroke-width="3" stroke-opacity="1"></use></g></g><g><use xlink:href="#b1FbDGS8on" opacity="1" fill="#ffffff" fill-opacity="0"></use><g><use xlink:href="#b1FbDGS8on" opacity="1" fill-opacity="0" stroke="#ffffff" stroke-width="1" stroke-opacity="1"></use></g></g><g><use xlink:href="#a2UOktrT40" opacity="1" fill="#000000" fill-opacity="0"></use><g><use xlink:href="#a2UOktrT40" opacity="1" fill-opacity="0" stroke="#ffffff" stroke-width="1" stroke-opacity="1"></use></g></g><g><use xlink:href="#ajqN5cn0s" opacity="1" fill="#ffffff" fill-opacity="0"></use><g><use xlink:href="#ajqN5cn0s" opacity="1" fill-opacity="0" stroke="#ffffff" stroke-width="3" stroke-opacity="1"></use></g></g><g><use xlink:href="#b1HRVM4HrH" opacity="1" fill="#ffffff" fill-opacity="0"></use><g><use xlink:href="#b1HRVM4HrH" opacity="1" fill-opacity="0" stroke="#ffffff" stroke-width="1" stroke-opacity="1"></use></g></g></g></g></svg>